# xmcd
#
# Track frame offsets: 
#        150
#        12735
#        26682
#        38610
#        52012
#        64870
#        77860
#        92387
#        106235
#        121187
#        135100
#        149305
#        160582
#        174752
#        188725
#        201927
#        214187
#        227815
#        239115
#        253297
#        267950
#        281422
#        292717
#        304645
#        316272
#        327895
#
# Disc length: 4516 seconds
#
# Revision: 0
# Processed by: cddbd v1.5.2PL0 Copyright (c) Steve Scherf et al.
# Submitted via: ExactAudioCopy v1.3
#
DISCID=6811a21a
DTITLE=Ramblin' Thomas and Oscar "Buddy"Woods - Texas knife slide guitar
DTITLE=blues
DYEAR=1900
DGENRE=Blues
TTITLE0=So lonesome
TTITLE1=Hard to rule woman blues
TTITLE2=Lock and key Blues
TTITLE3=Sawmill moan
TTITLE4=No baby Blues
TTITLE5=Ramblin' mind blues
TTITLE6=No job blues
TTITLE7=Back gnawing blues
TTITLE8=Jig head blues
TTITLE9=Hars Dallas blues
TTITLE10=Ramblin' man
TTITLE11=Poor boy blues
TTITLE12=Good time blues
TTITLE13=New way of living blues
TTITLE14=Ground hog blues
TTITLE15=Shake it gal
TTITLE16=Red nightgown blues
TTITLE17=Davis's salty dog
TTITLE18=Evil hearted woman blues
TTITLE19=Loan wolf blues
TTITLE20=Don't sell it -don't give it away
TTITLE21=Baton rouge rag
TTITLE22=Jam session blues
TTITLE23=Low life blues
TTITLE24=Token blues
TTITLE25=Come on over to my house baby
EXTD=
EXTT0=
EXTT1=
EXTT2=
EXTT3=
EXTT4=
EXTT5=
EXTT6=
EXTT7=
EXTT8=
EXTT9=
EXTT10=
EXTT11=
EXTT12=
EXTT13=
EXTT14=
EXTT15=
EXTT16=
EXTT17=
EXTT18=
EXTT19=
EXTT20=
EXTT21=
EXTT22=
EXTT23=
EXTT24=
EXTT25=
PLAYORDER=
